<svg width="49" height="49" viewBox="0 0 49 49" fill="none" xmlns="http://www.w3.org/2000/svg">
<circle cx="24.5" cy="24.5" r="24.5" fill="#C4DFE6"/>
<g clip-path="url(#clip0_302_2)">
<path d="M21.061 30.7785C19.9654 30.7785 19.0774 31.6666 19.0774 32.7621C19.0774 33.8576 19.9655 34.7456 21.061 34.7456C22.1565 34.7456 23.0445 33.8575 23.0445 32.7621C23.0446 31.6666 22.1565 30.7785 21.061 30.7785ZM21.061 33.8641C20.4523 33.8641 19.959 33.3707 19.959 32.7621C19.959 32.1535 20.4523 31.6601 21.061 31.6601C21.6696 31.6601 22.1629 32.1535 22.1629 32.7621C22.163 33.3707 21.6696 33.8641 21.061 33.8641Z" fill="#07575B"/>
<path d="M29.4361 30.7785C28.3406 30.7785 27.4525 31.6666 27.4525 32.7621C27.4525 33.8576 28.3406 34.7456 29.4361 34.7456C30.5316 34.7456 31.4196 33.8575 31.4196 32.7621C31.4196 31.6666 30.5316 30.7785 29.4361 30.7785ZM29.4361 33.8641C28.8275 33.8641 28.3341 33.3707 28.3341 32.7621C28.3341 32.1535 28.8275 31.6601 29.4361 31.6601C30.0447 31.6601 30.5381 32.1535 30.5381 32.7621C30.5381 33.3707 30.0447 33.8641 29.4361 33.8641Z" fill="#07575B"/>
<path d="M33.9102 19.2076C33.8184 19.1074 33.6928 19.0446 33.5575 19.0313L19.2096 18.8329L18.8129 17.6207C18.5334 16.8104 17.7746 16.2633 16.9175 16.2543H15.4408C15.1973 16.2543 15 16.4516 15 16.6951C15 16.9385 15.1973 17.1359 15.4408 17.1359H16.9175C17.3967 17.1465 17.8188 17.4542 17.9754 17.9073L20.7744 26.3485L20.5541 26.8554C20.3083 27.4893 20.3821 28.2027 20.7524 28.7729C21.1192 29.3329 21.7363 29.6784 22.4054 29.6986H30.9789C31.2224 29.6986 31.4197 29.5012 31.4197 29.2578C31.4197 29.0143 31.2224 28.817 30.9789 28.817H22.4054C22.0275 28.8075 21.6797 28.6087 21.4797 28.288C21.2819 27.9712 21.2413 27.5809 21.3695 27.2301L21.5459 26.8334L30.8246 25.8636C31.8438 25.7513 32.6822 25.0101 32.9184 24.0122L33.9763 19.5822C34.024 19.4547 33.9987 19.3112 33.9102 19.2076ZM32.0588 23.8139C31.9157 24.4562 31.3704 24.93 30.7144 24.982L21.5459 25.9297L19.4961 19.7145L33.0065 19.9129L32.0588 23.8139Z" fill="#07575B"/>
</g>
<defs>
<clipPath id="clip0_302_2">
<rect width="19" height="19" fill="white" transform="translate(15 16)"/>
</clipPath>
</defs>
</svg>
