<svg width="14" height="15" viewBox="0 0 14 15" fill="none" xmlns="http://www.w3.org/2000/svg">
<path d="M12.8766 9.87438C12.0195 9.87438 11.1779 9.74092 10.3804 9.47852C9.98958 9.34582 9.50917 9.46756 9.27066 9.71144L7.6965 10.8945C5.87092 9.92432 4.7464 8.80515 3.78521 7.00129L4.93857 5.47493C5.23822 5.177 5.3457 4.74181 5.21693 4.33346C4.95224 3.53529 4.81779 2.69781 4.81779 1.84411C4.81782 1.22738 4.31386 0.725647 3.69443 0.725647H1.12339C0.503964 0.725647 0 1.22738 0 1.84407C0 8.91291 5.77638 14.6637 12.8766 14.6637C13.4961 14.6637 14 14.1619 14 13.5453V10.9927C14 10.3761 13.496 9.87438 12.8766 9.87438Z" fill="#C4DFE6"/>
</svg>
